<svg width="76" height="83" viewBox="0 0 76 83" fill="none" xmlns="http://www.w3.org/2000/svg">
<path d="M69.3729 46.5789C69.1205 54.5478 66.3248 62.229 61.392 68.506C56.4591 74.7829 49.6463 79.3286 41.9436 81.4822C34.2408 83.6358 26.0497 83.2852 18.5606 80.4814C11.0715 77.6775 4.67476 72.5665 0.300049 65.8913L0.310948 65.8794L0.358502 65.8558C0.370391 65.8558 0.370389 65.8439 0.382277 65.8439C0.394166 65.8202 0.406057 65.8202 0.417945 65.8084L12.3975 58.0083L63.2652 24.8691V24.881C63.395 25.0696 63.5129 25.2582 63.6317 25.4586C63.9161 25.895 64.1766 26.3472 64.4362 26.8043C64.6849 27.2289 64.9216 27.6535 65.1465 28.0879C65.4903 28.7247 65.8103 29.3853 66.0936 30.0468C66.2363 30.341 66.3668 30.6372 66.485 30.9354C66.6742 31.3718 66.8396 31.7963 67.0051 32.2446C67.1359 32.5635 67.2419 32.8933 67.3489 33.224C67.4479 33.4719 67.5262 33.7177 67.6094 33.9784C67.9284 34.9815 68.2128 35.9965 68.4495 37.0342C69.1752 40.1617 69.4857 43.3707 69.3729 46.5789Z" fill="url(#paint0_linear_3_6095)"/>
<g style="mix-blend-mode:multiply" opacity="0.16">
<g style="mix-blend-mode:multiply">
<path d="M68.4495 37.0342L0.300049 65.8913L63.2652 24.8711C65.7024 28.5876 67.4578 32.7059 68.4495 37.0342Z" fill="black"/>
</g>
</g>
<path d="M75.3751 16.9897L75.3632 17.0016C75.3513 17.0016 75.3394 17.0252 75.3166 17.0252C75.3023 17.0469 75.2815 17.0635 75.2572 17.0726L63.2697 24.8825L12.401 58.0098C12.2712 57.8124 12.1524 57.6208 12.0345 57.4174C6.83703 49.211 5.05636 39.3078 7.07101 29.8133C7.33595 28.5592 7.66396 27.3192 8.05378 26.0979C8.06299 26.0787 8.07093 26.0589 8.07756 26.0388C8.08789 25.982 8.10382 25.9264 8.12512 25.8729C10.294 19.2292 14.2837 13.3225 19.6435 8.81958C25.0033 4.31671 31.5197 1.3972 38.4567 0.390777C45.3937 -0.615641 52.4749 0.331148 58.9005 3.1242C65.326 5.91725 70.8398 10.4452 74.8193 16.1968C74.8359 16.2157 74.8515 16.2355 74.8659 16.2561C75.0442 16.494 75.2116 16.7418 75.3751 16.9897Z" fill="url(#paint1_linear_3_6095)"/>
<g style="mix-blend-mode:multiply" opacity="0.25">
<g style="mix-blend-mode:multiply">
<path d="M63.6314 25.4605C60.2808 27.8203 56.3864 30.496 52.1838 33.3297C50.0043 34.7929 47.7692 36.3263 45.4609 37.8369C43.1526 39.3475 40.8195 40.8917 38.4883 42.4261C36.1324 43.9476 33.7765 45.4582 31.4543 46.956C29.1341 48.4311 26.8377 49.8825 24.6244 51.2855C20.1732 54.0817 16.0053 56.6537 12.3952 58.813C8.80888 60.995 5.75751 62.7298 3.64732 63.9798C1.78876 65.0659 0.616757 65.7145 0.356201 65.8557C0.370268 65.8339 0.39115 65.8172 0.415641 65.8083L63.2628 24.8711C63.3946 25.0597 63.5125 25.2601 63.6314 25.4605Z" fill="black"/>
</g>
</g>
<g style="mix-blend-mode:screen" opacity="0.7">
<g style="mix-blend-mode:screen">
<path d="M75.3158 17.0254C75.3015 17.047 75.2807 17.0636 75.2564 17.0728L12.4002 58.01C12.2704 57.8126 12.1516 57.621 12.0337 57.4176C15.3842 55.0697 19.2905 52.3822 23.4921 49.5485C25.6716 48.0852 27.9195 46.5756 30.216 45.0413C32.5124 43.5316 34.8564 41.9864 37.1885 40.4521C39.5444 38.9306 41.9003 37.42 44.2225 35.9222C46.5447 34.4244 48.8393 32.9967 51.0525 31.5927C55.4919 28.7965 59.6716 26.2245 63.2807 24.0533C66.868 21.8713 69.9184 20.1484 72.0296 18.8984C73.8832 17.8153 75.0552 17.1666 75.3158 17.0254Z" fill="white"/>
</g>
</g>
<g style="mix-blend-mode:screen" opacity="0.25">
<g style="mix-blend-mode:screen">
<path d="M64.6617 45.2803C64.67 47.5723 64.4319 49.8585 63.9513 52.0999C63.0752 56.3152 61.3723 60.3166 58.9405 63.8743C56.5086 67.4321 53.3957 70.4762 49.7803 72.8318C46.165 75.1875 42.1183 76.8083 37.8728 77.6014C33.6273 78.3943 29.2663 78.3439 25.0405 77.4529C18.0942 76.0307 11.8046 72.385 7.12952 67.0709L7.47329 66.8468L64.6617 45.2803Z" fill="white"/>
</g>
</g>
<g style="mix-blend-mode:screen" opacity="0.25">
<g style="mix-blend-mode:screen">
<path d="M68.5445 15.8096L67.8698 16.246L11.6167 31.2171C11.6405 31.0759 11.6633 30.9209 11.6989 30.7807C12.578 26.5645 14.2836 22.5628 16.7179 19.005C19.1522 15.4472 22.2673 12.4034 25.8844 10.0479C29.5017 7.69249 33.5499 6.07188 37.7968 5.27904C42.0439 4.4862 46.4061 4.53672 50.6336 5.42768C57.5776 6.85552 63.8655 10.5002 68.5445 15.8096Z" fill="white"/>
</g>
</g>
<g style="mix-blend-mode:multiply" opacity="0.16">
<g style="mix-blend-mode:multiply">
<path d="M69.3729 46.5781C69.1205 54.5472 66.3248 62.2283 61.392 68.5053C56.4592 74.7822 49.6463 79.3278 41.9436 81.4815C34.2409 83.6351 26.0497 83.2845 18.5606 80.4807C11.0715 77.6769 4.67476 72.5659 0.300049 65.8906C1.49741 67.4623 2.79005 68.9595 4.17073 70.3741C6.94548 73.1299 10.1124 75.4634 13.5695 77.2993C16.9934 79.1194 20.6791 80.4007 24.496 81.0976L27.3611 81.4985C28.3191 81.6644 29.29 81.617 30.249 81.6871L31.6935 81.7463L33.1379 81.6762C34.0961 81.6547 35.0523 81.5796 36.002 81.4511L38.8552 81.0147L41.649 80.3078C42.5961 80.1103 43.4838 79.7055 44.3953 79.4192C45.3086 79.1178 46.1989 78.7512 47.0593 78.3222C48.811 77.5291 50.5001 76.6049 52.1119 75.5577L54.4786 73.894C55.2246 73.2927 55.9469 72.6559 56.681 72.0299C57.4063 71.3939 58.0977 70.7206 58.7525 70.0127L59.771 68.975L60.6705 67.8544C61.9008 66.3576 63.024 64.7766 64.032 63.123L65.4051 60.551C65.8906 59.7019 66.1749 58.7817 66.5771 57.897C66.7663 57.4488 66.9734 57.0084 67.1458 56.5523L67.5837 55.1364C67.8561 54.1925 68.2227 53.2368 68.4238 52.3047C68.8595 50.4174 69.1765 48.5048 69.3729 46.5781Z" fill="black"/>
</g>
</g>
<g style="mix-blend-mode:screen" opacity="0.7">
<g style="mix-blend-mode:screen">
<path d="M74.815 16.1988C74.7159 16.0813 74.5663 15.9026 74.3652 15.6686C73.9977 15.1848 73.3745 14.5242 72.6246 13.6633C70.4772 11.3785 68.0697 9.35132 65.4509 7.62273C63.7246 6.47146 61.9076 5.4614 60.0179 4.60243C57.9199 3.66465 55.7458 2.90659 53.5189 2.33648C52.9502 2.18344 52.3112 2.06595 51.7069 1.92377C51.1511 1.79443 50.5121 1.74704 49.9236 1.6414C49.3084 1.55846 48.704 1.47552 48.0888 1.38173C47.4617 1.31064 46.8465 1.29878 46.2184 1.25139C45.5912 1.22769 44.9641 1.16945 44.336 1.15266L42.4309 1.22276C41.1616 1.25854 39.8962 1.37693 38.6425 1.57722C38.0127 1.64228 37.3878 1.74848 36.772 1.89514L34.9016 2.29008C33.682 2.59616 32.4753 3.0217 31.2795 3.38702C30.1313 3.88069 28.9474 4.28353 27.8468 4.82657C27.3019 5.09809 26.757 5.38046 26.2131 5.65198L25.3958 6.06469L24.6389 6.53666C23.6323 7.18633 22.602 7.75207 21.6905 8.47184C19.9063 9.75913 18.2388 11.1999 16.7073 12.7776C15.9881 13.476 15.312 14.2169 14.6823 14.9962C14.079 15.7505 13.4994 16.4821 12.9545 17.1683C12.4592 17.9118 11.9955 18.596 11.5457 19.2566C10.6818 20.5668 10.1013 21.8167 9.52169 22.811C8.70436 24.6514 8.19613 25.7957 8.07724 26.0436C8.07062 26.0638 8.06267 26.0836 8.05347 26.1028C8.05347 26.1028 8.07724 26.0199 8.1248 25.8777C10.2937 19.2341 14.2833 13.3274 19.6431 8.82448C25.0029 4.32161 31.5194 1.40208 38.4564 0.39566C45.3934 -0.610758 52.4747 0.336029 58.9002 3.12909C65.3257 5.92214 70.8395 10.4501 74.819 16.2017L74.815 16.1988Z" fill="white"/>
</g>
</g>
<defs>
<linearGradient id="paint0_linear_3_6095" x1="0.300049" y1="24.8691" x2="57.4299" y2="92.9206" gradientUnits="userSpaceOnUse">
<stop stop-color="#FE6043"/>
<stop offset="1" stop-color="#C27259"/>
</linearGradient>
<linearGradient id="paint1_linear_3_6095" x1="6.26172" y1="0" x2="63.3931" y2="68.0668" gradientUnits="userSpaceOnUse">
<stop stop-color="#FE6043"/>
<stop offset="1" stop-color="#C27259"/>
</linearGradient>
</defs>
</svg>
